<svg version="1" xmlns="http://www.w3.org/2000/svg" width="933.333" height="933.333" viewBox="0 0 700.000000 700.000000"><path d="M170.9 10.5c-1.9.6-19.1 10.3-38.4 21.5C113.3 43.1 95.9 53.1 94 54.2 75.2 64.8 28.9 91.6 26.8 93.1c-1.5 1.1-2.9 1.9-3.2 1.9-1.3 0-19.5 11.3-21.2 13.1-1.8 2-1.9 5.3-1.9 101.1v98.9l3.5 3.1c1.9 1.7 24.4 15.1 50 29.8 25.6 14.7 60.5 34.8 77.5 44.7l31 17.9.1 92.3c.1 90.5.1 92.3 2.1 94.9 1.7 2.2 15.2 11.1 25.3 16.5 4.3 2.3 11.3 6.4 26.7 15.3 8.1 4.8 16.8 9.8 19.3 11.2 2.5 1.4 11.3 6.4 19.5 11.2 8.3 4.8 25.8 14.9 39 22.5s27.4 15.8 31.5 18.2c5 2.9 8.6 4.3 11 4.3 2.8 0 15.6-7 62.5-34.1 32.5-18.8 61.5-35.5 64.5-37.2 3-1.7 9.9-5.7 15.3-8.9 5.5-3.2 10-5.8 10.2-5.8.1 0 4.2-2.4 9-5.3 14.4-8.6 12.8 4.8 12.6-107.7-.1-81-.4-97.7-1.6-99.9-.9-1.9-7-6-20.2-13.6-10.3-6-34.3-19.9-53.3-30.8-19-11-36.1-20.8-38-21.9-1.9-1.1-15.6-9-30.4-17.5-21.9-12.7-27.5-15.6-30.7-15.6-3.1 0-8.3 2.6-27.6 13.8-13.1 7.6-25.8 14.9-28.3 16.3-2.5 1.4-5.7 3.3-7.2 4.3-1.4 1.1-2.9 1.9-3.2 1.9-.3 0-2.9 1.4-5.8 3.1-2.9 1.8-18.6 10.8-34.8 20.2-16.2 9.3-35.3 20.3-42.5 24.5l-12.9 7.5-5.6-3c-3-1.7-22.8-13-44-25.3-21.2-12.2-51.8-29.9-68-39.3-16.2-9.3-30.4-17.6-31.5-18.3-2-1.4-2-2.6-2.1-88.4l-.1-87 7.6-4.4c4.2-2.4 14.6-8.4 23.1-13.4 8.5-4.9 17.1-9.9 19-11 1.9-1.1 10.7-6.1 19.5-11.2 29.7-17.2 62-35.8 65.5-37.7 1.9-1.1 6.4-3.7 9.9-5.8 4.8-2.8 6.8-3.5 8-2.8.9.5 13.8 8 28.6 16.5 14.9 8.6 49.7 28.7 77.5 44.8 27.8 16 51.9 29.4 53.6 29.7 6.7 1.1 13.6-5.7 12.8-12.4-.2-1.9-1.2-4.5-2.2-5.8-1.4-2-12.3-8.7-35.6-21.9-2.8-1.6-6.4-3.7-8.1-4.7-1.6-1-5.7-3.3-9-5.2-10.5-6-12.5-7.1-38-21.9-70.6-40.9-76.8-44.4-79.1-45-1.2-.3-3.6 0-5.5.7zm173 309.9c3.1 1.9 7.2 4.3 9.1 5.4 5.8 3.3 21.7 12.4 35.5 20.4 54.7 31.6 85.1 49.2 91.5 53l7.5 4.4v174.7l-32 18.4c-17.6 10.2-33.8 19.5-36 20.8-7.8 4.4-16.1 9.2-21 12.2-2.7 1.6-5.7 3.2-6.5 3.6-.8.4-3.6 2-6.1 3.5-3.8 2.2-20.2 11.7-44.9 26l-4 2.3-13.7-8c-7.6-4.3-15.4-8.8-17.4-9.9-2-1.1-13.7-7.9-26-15-52.8-30.6-73.7-42.7-78.9-45.5-3-1.7-7.2-4.1-9.2-5.4-2.1-1.3-4.2-2.3-4.8-2.3-.7 0-1-28.8-1-87.8v-87.7l26.1-15c14.3-8.3 27.3-15.7 28.7-16.5 1.5-.8 9-5.2 16.7-9.6 7.7-4.5 15.6-9.1 17.5-10.1 1.9-1.1 7-4.1 11.3-6.7 4.3-2.5 8-4.6 8.1-4.6.2 0 9.5-5.4 20.7-12 11.2-6.5 21-11.9 21.8-12 .7 0 3.9 1.5 7 3.4z"/><path d="M323.4 345c-6.1 2.4-8.5 12.1-4.4 17.3 1.1 1.4 6 4.8 10.8 7.5 4.8 2.7 10.5 5.9 12.7 7.1 18.4 10.5 55.9 31.9 59.4 33.9 2.4 1.3 11.9 6.7 21 12 31.1 17.8 31.9 18.2 35.4 18.2 9.4 0 14.8-11.3 8.9-18.7-1.4-1.7-23.8-15-54.4-32.2-2.9-1.6-22.4-12.6-43.3-24.5-38.4-21.9-40.6-22.9-46.1-20.6zM216.9 407.7c-5.7 3.5-5.6 1.1-5.5 85.3l.1 77.5 2.2 3.2c5 6.9 15.8 6.1 19.6-1.5 2.1-4.1 1.9-157.7-.2-160.8-3.4-5.1-11.1-6.9-16.2-3.7zM456.6 542.7c-1 .3-3.3 1.3-5 2.3-8.9 5-71.6 41.1-74.6 42.9-1.9 1.1-4.2 2.4-5 2.8-1.7.8-22.7 12.8-25 14.3-.8.5-3.3 1.9-5.5 3.1-22 11.8-25.9 16.3-22 25.5 1.7 4.1 7.2 6.9 12 6.1 1.6-.3 14-6.9 27.5-14.7 13.5-7.8 26.3-15.2 28.5-16.4 30.4-17.1 78.5-45.2 80.3-47 5.3-5.2 3.6-14.3-3.4-17.6-4.1-2.1-4.5-2.1-7.8-1.3zM45 125.7c-1.7 1.6-3.4 4.1-3.8 5.8-.5 1.6-.8 37.4-.7 79.5v76.5l2.3 3.2c5.1 7.2 15.6 6.3 19.7-1.7 2-3.9 1.9-155.3-.1-159.5-3.1-6.7-12.1-8.6-17.4-3.8zM122.8 141.6c-6.1 3.2-5.9 1.7-6 68.9 0 52.6.2 61.7 1.5 64.2 4 7.6 15.7 7.6 20.2 0 1.6-2.7 1.8-5.7 1.8-27.4 0-13.3.2-24.3.6-24.2.3 0 3 2.8 6 6.2 3 3.4 9.5 10.6 14.4 16 4.9 5.3 9.8 10.7 10.9 12 6.7 7.7 19.4 21 20.8 21.7 5.3 2.9 12.4 1.2 15.6-3.7 3.5-5.4 1.8-11.4-5.3-18.8-1-1.1-7-7.6-13.3-14.5-6.3-6.9-13.1-14.3-15.1-16.5-2.1-2.2-6-6.5-8.7-9.5l-5-5.5 3-3.5c1.7-1.9 5.4-6 8.2-9.1 4.3-4.7 21-22.9 24.1-26.3.6-.6 3.8-4.2 7.3-7.9 5.7-6.2 6.2-7.1 6.2-11.3 0-2.5-.7-5.6-1.7-7.1-2.3-3.4-7.5-5.5-11.8-4.7-3.8.7-5.5 2.2-16.5 14.3-4.1 4.6-8.8 9.8-10.5 11.5-1.6 1.8-6.8 7.5-11.5 12.6-4.7 5.2-10.6 11.6-13.1 14.3l-4.6 5v-24.1c0-25.9-.5-28.8-5-31.8-3.4-2.2-9.2-2.6-12.5-.8zM257.1 141.6c-11.8 3.2-21.3 10.6-25.9 20.4-2.3 4.7-2.7 6.8-2.7 15 0 8.5.3 10.1 2.9 15.5 5.2 10.6 12.6 16.4 30.2 23.5 5.4 2.3 11.5 5.1 13.4 6.4 5.2 3.5 10 8.4 10.1 10.4.1.9.2 2.9.3 4.3.2 1.5-.6 4.4-1.6 6.5-4.2 8.7-10.9 12.8-21.3 12.8-8.8.1-12.3-1.8-18.4-9.8-5.3-7-9.5-9.1-14.8-7.7-8.6 2.4-10.9 10.7-5.6 20 5.3 9.2 15.9 17 27 20 9.9 2.7 25.2.9 33.9-3.9 10.5-5.9 17-12.9 21.2-23.2 3.8-9.1 3.8-22 .1-29.8-2.7-5.8-8.6-12.6-15.2-17.4-4.4-3.2-15.5-8.8-21.2-10.6-9.9-3.1-15.5-7.4-17.4-13.1-1.5-4.7-.8-8.5 2.1-11.6 6.1-6.5 15.9-7.5 25.3-2.6 8.9 4.6 16 3.1 19-4 2.8-6.7.1-12.2-8.3-16.9-10-5.7-22-7.2-33.1-4.2zM334 140.7c-4 1.3-6 2.9-7.5 5.8-1.3 2.9-1.5 11.4-1.5 64.9V273l3.3 3.5c5.4 5.9 13.9 5.2 17.9-1.4 2.1-3.4 2.1-4.1 2.1-65 0-58.4-.1-61.9-1.9-64.5-2.6-4.1-8.3-6.3-12.4-4.9zM420.4 141.6c-31.8 6.7-54.9 34.4-55.9 66.9-1.1 39.9 31.6 72.9 71.5 72 10.7-.3 19.7-2.3 28.5-6.6 8.8-4.2 11.6-9.7 8.5-16.6-3.2-7.2-10.1-8.8-19-4.3-1.9 1-6.1 2.3-9.2 3-31.1 6.4-58.9-18-56.5-49.5.9-12.5 7.4-24.7 17.3-32.6 12.6-10 30-12.8 45.4-7.4 2.4.8 4.9 2 5.7 2.7 2.2 1.8 9.7 1.3 12.6-.8 4.7-3.4 6.1-9.4 3.5-14.7-3.4-6.9-19.5-12.7-36.3-13.1-5.5-.2-12.8.3-16.1 1zM496.2 142c-1.8 1.1-3.9 3.3-4.5 4.9-.9 2.1-1.2 18.6-1.2 64.3v61.3l2.3 3.2c4.4 6.2 13.4 6.3 18.7.3 1.9-2.1 2-3.9 2.3-28.1l.3-25.9h52.5v24.2c-.1 20.2.2 24.8 1.5 27.8 3.7 8.2 15.7 8.8 20.2 1 1.5-2.5 1.7-8.7 1.7-64.4 0-44.3-.3-62.2-1.2-64-2.4-5.3-10.4-7.9-15.7-5.2-6.3 3.3-6.4 4.1-6.5 31.7 0 21.6-.2 25-1.6 25.3-.8.3-12.6.4-26.2.4h-24.7l-.3-25.9-.3-25.9-3-3c-4.1-4-9.8-4.8-14.3-2zM614.4 140.7c-3.2.6-7.4 5.6-7.9 9.3-.5 4.4 1.7 9.4 5.1 11.6 2.2 1.5 5.1 1.9 15.3 2 6.9.2 13.1.3 13.6.3.7.1 1 18.5.9 53.3-.1 41.4.2 54 1.2 56.5 3.3 8.2 15.2 9.1 20.2 1.6 1.5-2.5 1.7-7.5 2.2-57.2l.5-54.5 13.1-.1c14.6 0 17.2-.9 20.1-6.9 2.1-4.5 1.1-9.5-2.8-13.2l-3-2.9-38.2-.1c-21-.1-39.2 0-40.3.3z"/></svg>